# File created by Blade
# Date/Time:  Tue Jan 27 17:21:46 2015
#---------------------------------------------------------
:version 1.10
:name HOM
:units
  mass 1.0
  length 1.000000
  angle deg
:documentation
     Acclaim Skeleton File
:root
   axis xyz
   order TX TY TZ RX RY RZ
   position 0.000000 0.000000 0.000000
   orientation 0 0 0
:bonedata
   begin
      id 1
      name Spine_dum
      direction 0.000000 1.000000 0.000000
      length 7.539951
      axis 0.0 0.0 0.0 xyz
   end
   begin
      id 2
      name LeftUpLeg_dum
      direction 1.000000 0.000000 0.000000
      length 3.345476
      axis 0.0 0.0 0.0 xyz
   end
   begin
      id 3
      name RightUpLeg_dum
      direction -1.000000 0.000000 0.000000
      length 3.345476
      axis 0.0 0.0 0.0 xyz
   end
   begin
      id 4
      name Spine
      direction 0.000000 1.000000 0.000000
      length 0.000000
      axis 0.0 0.0 0.0 xyz
      dof rx ry rz
   end
   begin
      id 5
      name Spine_dum1
      direction 0.000000 1.000000 0.000000
      length 15.093809
      axis 0.0 0.0 0.0 xyz
   end
   begin
      id 6
      name Spine_dum2
      direction 0.000000 1.000000 0.000000
      length 9.738928
      axis 0.0 0.0 0.0 xyz
   end
   begin
      id 7
      name Spine_dum3
      direction 0.000000 1.000000 0.000000
      length 9.738928
      axis 0.0 0.0 0.0 xyz
   end
   begin
      id 8
      name Head
      direction 0.000000 1.000000 0.000000
      length 4.527550
      axis 0.0 0.0 0.0 xyz
      dof rx ry rz
   end
   begin
      id 9
      name LeftShoulder
      direction 1.000000 0.000000 0.000000
      length 7.084015
      axis 0.0 0.0 -90.0 xyz
      dof rx ry rz
   end
   begin
      id 10
      name LeftArm
      direction 1.000000 0.000000 0.000000
      length 10.259319
      axis 0.0 0.0 -90.0 xyz
      dof rx ry rz
   end
   begin
      id 11
      name LeftForeArm
      direction 1.000000 0.000000 0.000000
      length 9.896984
      axis 0.0 0.0 -90.0 xyz
      dof ry rz rx
   end
   begin
      id 12
      name LeftHand
      direction 0.000000 0.000000 0.000000
      length 0.000000
      axis 0.0 0.0 -90.0 xyz
      dof rx ry rz
   end
   begin
      id 13
      name LeftHand_dum1
      direction 0.000000 0.000000 0.000000
      length 0.000000
      axis 0.0 0.0 -90.0 xyz
   end
   begin
      id 14
      name LeftHand_dum2
      direction 1.000000 0.000000 0.000000
      length 3.937000
      axis 0.0 0.0 -90.0 xyz
   end
   begin
      id 15
      name LeftHandThumb1
      direction 0.000000 0.000000 1.000000
      length 3.937000
      axis 0.0 0.0 -90.0 xyz
      dof rx rz ry
   end
   begin
      id 16
      name RightShoulder
      direction -1.000000 0.000000 0.000000
      length 7.084015
      axis 0.0 0.0 90.0 xyz
      dof rx ry rz
   end
   begin
      id 17
      name RightArm
      direction -1.000000 0.000000 0.000000
      length 10.259319
      axis 0.0 0.0 90.0 xyz
      dof rx ry rz
   end
   begin
      id 18
      name RightForeArm
      direction -1.000000 0.000000 0.000000
      length 9.896984
      axis 0.0 0.0 90.0 xyz
      dof ry rz rx
   end
   begin
      id 19
      name RightHand
      direction 0.000000 0.000000 0.000000
      length 0.000000
      axis 0.0 0.0 90.0 xyz
      dof rx ry rz
   end
   begin
      id 20
      name RightHand_dum1
      direction 0.000000 0.000000 0.000000
      length 0.000000
      axis 0.0 0.0 90.0 xyz
   end
   begin
      id 21
      name RightHand_dum2
      direction -1.000000 0.000000 0.000000
      length 3.937000
      axis 0.0 0.0 90.0 xyz
   end
   begin
      id 22
      name RightHandThumb1
      direction 0.000000 0.000000 1.000000
      length 3.937000
      axis 0.0 0.0 90.0 xyz
      dof rx rz ry
   end
   begin
      id 23
      name LeftUpLeg
      direction 0.000000 -1.000000 0.000000
      length 19.114733
      axis 0.0 0.0 0.0 xyz
      dof rx ry rz
   end
   begin
      id 24
      name LeftLeg
      direction 0.000000 -1.000000 0.000000
      length 16.045604
      axis 0.0 0.0 0.0 xyz
      dof rx ry rz
   end
   begin
      id 25
      name LeftFoot
      direction 0.000000 -0.258819 0.965926
      length 5.543155
      axis 15.0 0.0 0.0 xyz
      dof rx ry rz
   end
   begin
      id 26
      name LeftToeBase
      direction 0.000000 0.000000 1.000000
      length 2.952750
      axis 0.0 0.0 0.0 xyz
      dof rx ry rz
   end
   begin
      id 27
      name RightUpLeg
      direction 0.000000 -1.000000 0.000000
      length 19.114733
      axis 0.0 0.0 0.0 xyz
      dof rx ry rz
   end
   begin
      id 28
      name RightLeg
      direction 0.000000 -1.000000 0.000000
      length 16.045604
      axis 0.0 0.0 0.0 xyz
      dof rx ry rz
   end
   begin
      id 29
      name RightFoot
      direction 0.000000 -0.258819 0.965926
      length 5.543155
      axis 15.0 0.0 0.0 xyz
      dof rx ry rz
   end
   begin
      id 30
      name RightToeBase
      direction 0.000000 0.000000 1.000000
      length 2.952750
      axis 0.0 0.0 0.0 xyz
      dof rx ry rz
   end
:hierarchy
   begin
      root Spine_dum LeftUpLeg_dum RightUpLeg_dum
      Spine_dum Spine
      LeftUpLeg_dum LeftUpLeg
      RightUpLeg_dum RightUpLeg
      Spine Spine_dum1 Spine_dum2 Spine_dum3
      Spine_dum1 Head
      Spine_dum2 LeftShoulder
      Spine_dum3 RightShoulder
      LeftShoulder LeftArm
      LeftArm LeftForeArm
      LeftForeArm LeftHand
      LeftHand LeftHand_dum1 LeftHand_dum2
      LeftHand_dum1 LeftHandThumb1
      RightShoulder RightArm
      RightArm RightForeArm
      RightForeArm RightHand
      RightHand RightHand_dum1 RightHand_dum2
      RightHand_dum1 RightHandThumb1
      LeftUpLeg LeftLeg
      LeftLeg LeftFoot
      LeftFoot LeftToeBase
      RightUpLeg RightLeg
      RightLeg RightFoot
      RightFoot RightToeBase
   end

# File created by Blade
# Date/Time:  Tue Jan 27 17:21:37 2015
# Frame Rate: 120.000 fps
#------------------------------------------------------
:FULLY-SPECIFIED
:DEGREES
3022
root -2.674244 36.353914 0.965802 19.088085 50.114932 13.133927
Spine -1.245637 -1.587186 -5.945103
Head 1.524236 6.971756 -0.949803
LeftShoulder 1.848308 -17.099983 9.453644
LeftArm 13.456521 -14.116309 -49.465232
LeftForeArm 0.091071 -0.000000 67.095083
LeftHand -15.209955 -0.000000 46.594388
LeftHandThumb1 -26.253704 0.000000 33.147579
RightShoulder -5.556799 -18.259886 0.546354
RightArm 13.856446 -20.570714 53.424883
RightForeArm 184.197455 -0.000000 30.646836
RightHand 0.552632 -0.000000 0.387881
RightHandThumb1 -24.326973 -0.000000 -32.862282
LeftUpLeg -51.370046 49.347786 0.084088
LeftLeg 109.753885 -0.000000 -0.000000
LeftFoot -9.826966 8.784943 -33.158368
LeftToeBase 14.159268 -0.000000 -0.000000
RightUpLeg -22.169348 -26.398283 6.338028
RightLeg 27.861074 -0.000000 -0.000000
RightFoot -25.978969 -21.153198 6.437216
RightToeBase 1.946422 -0.000000 -0.000000
3023
root -2.674949 36.348690 1.007408 19.341158 50.666121 13.435946
Spine -1.246048 -1.924870 -6.042619
Head 1.700015 6.737191 -0.835141
LeftShoulder 1.923285 -17.197675 9.598877
LeftArm 13.548728 -13.976722 -49.663520
LeftForeArm 0.104287 0.000000 66.922750
LeftHand -15.062187 0.000000 46.493329
LeftHandThumb1 -26.253704 0.000000 33.147579
RightShoulder -5.703248 -18.222831 0.641898
RightArm 13.489920 -20.477827 53.643954
RightForeArm 184.041701 -0.000000 30.549161
RightHand 0.651723 -0.000000 0.431940
RightHandThumb1 -24.326973 -0.000000 -32.862282
LeftUpLeg -52.089205 49.939591 -0.571827
LeftLeg 110.859186 -0.000000 -0.000000
LeftFoot -9.513162 8.705118 -32.861063
LeftToeBase 14.182231 -0.000000 -0.000000
RightUpLeg -22.185659 -26.622380 6.329960
RightLeg 27.983276 -0.000000 -0.000000
RightFoot -26.129439 -21.491569 6.578571
RightToeBase 1.900456 -0.000000 -0.000000
3024
root -2.675683 36.344852 1.044333 19.671630 51.164043 13.801830
Spine -1.277906 -2.244146 -6.219889
Head 1.888664 6.547647 -0.576352
LeftShoulder 2.018829 -17.265502 9.761917
LeftArm 13.624280 -13.884330 -49.831267
LeftForeArm 0.080439 0.000000 66.782179
LeftHand -14.937633 -0.000000 46.161016
LeftHandThumb1 -26.253704 0.000000 33.147579
RightShoulder -5.821208 -18.231196 0.783314
RightArm 13.104354 -20.323051 53.848519
RightForeArm 183.999447 -0.000000 30.540050
RightHand 0.699721 -0.000000 0.286616
RightHandThumb1 -24.326973 -0.000000 -32.862282
LeftUpLeg -52.851976 50.541482 -1.345373
LeftLeg 111.892327 -0.000000 -0.000000
LeftFoot -9.215245 8.583291 -32.648554
LeftToeBase 14.409697 -0.000000 -0.000000
RightUpLeg -22.233720 -26.761096 6.273013
RightLeg 28.111160 -0.000000 -0.000000
RightFoot -26.280211 -21.863257 6.734098
RightToeBase 1.828975 -0.000000 -0.000000
3025
root -2.673372 36.340308 1.089195 19.951031 51.707553 14.132070
Spine -1.291794 -2.581539 -6.342438
Head 2.041737 6.302524 -0.442413
LeftShoulder 2.100388 -17.263386 9.875182
LeftArm 13.848529 -13.796109 -49.974813
LeftForeArm 0.090956 -0.000000 66.533225
LeftHand -14.829762 -0.000000 46.070519
LeftHandThumb1 -26.253704 0.000000 33.147579
RightShoulder -5.967588 -18.205004 0.905176
RightArm 12.697622 -20.204296 54.086120
RightForeArm 183.943572 -0.000000 30.491984
RightHand 0.651328 -0.000000 0.368230
RightHandThumb1 -24.326973 -0.000000 -32.862282
LeftUpLeg -53.553669 51.084633 -2.041928
LeftLeg 112.882956 -0.000000 -0.000000
LeftFoot -8.942873 8.419220 -32.528655
LeftToeBase 14.064205 -0.000000 -0.000000
RightUpLeg -22.244149 -26.939926 6.252663
RightLeg 28.238736 -0.000000 -0.000000
RightFoot -26.412851 -22.228485 6.894451
RightToeBase 1.708553 -0.000000 -0.000000
3026
root -2.671292 36.336190 1.133662 20.226498 52.289658 14.470069
Spine -1.277502 -2.976266 -6.458772
Head 2.215888 6.103943 -0.235115
LeftShoulder 2.291450 -17.468858 10.007329
LeftArm 13.891183 -13.786113 -50.158289
LeftForeArm 0.215450 -0.000000 66.231537
LeftHand -14.942477 -0.000000 46.381922
LeftHandThumb1 -26.253704 0.000000 33.147579
RightShoulder -6.112698 -18.202093 1.050942
RightArm 12.338825 -20.065807 54.273409
RightForeArm 184.072782 -0.000000 30.450906
RightHand 0.566134 -0.000000 0.244807
RightHandThumb1 -24.326973 -0.000000 -32.862282
LeftUpLeg -54.197419 51.533793 -2.673099
LeftLeg 113.815999 -0.000000 -0.000000
LeftFoot -8.598466 8.128439 -32.546493
LeftToeBase 14.215298 -0.000000 -0.000000
RightUpLeg -22.206802 -27.061079 6.219549
RightLeg 28.301691 -0.000000 -0.000000
RightFoot -26.568375 -22.684837 7.083641
RightToeBase 1.680369 -0.000000 -0.000000
3027
root -2.670340 36.334242 1.171545 20.620361 52.899785 14.883096
Spine -1.322953 -3.427477 -6.586680
Head 2.384572 5.932438 -0.018489
LeftShoulder 2.391331 -17.488283 10.168718
LeftArm 14.033360 -13.692756 -50.337837
LeftForeArm 0.201714 -0.000000 66.012800
LeftHand -14.836501 -0.000000 46.524030
LeftHandThumb1 -26.253704 0.000000 33.147579
RightShoulder -6.245650 -18.203918 1.176676
RightArm 11.935047 -19.897366 54.494915
RightForeArm 184.115389 -0.000000 30.488063
RightHand 0.651511 -0.000000 0.247759
RightHandThumb1 -24.326973 -0.000000 -32.862282
LeftUpLeg -54.906549 51.869658 -3.417249
LeftLeg 114.678135 -0.000000 -0.000000
LeftFoot -8.311393 7.809826 -32.747948
LeftToeBase 14.875143 -0.000000 -0.000000
RightUpLeg -22.254079 -27.215062 6.192746
RightLeg 28.381018 -0.000000 -0.000000
RightFoot -26.677931 -23.168779 7.257740
RightToeBase 1.545707 -0.000000 -0.000000
